<svg width="383" height="167" viewBox="0 0 383 167" fill="none" xmlns="http://www.w3.org/2000/svg">
<g clip-path="url(#clip0)">
<path d="M382.97 60.17C382.97 93.4 356.03 120.34 322.8 120.34C289.57 120.34 262.63 93.4 262.63 60.17C262.63 26.94 289.57 0 322.8 0C356.03 0 382.97 26.94 382.97 60.17Z" fill="#FD0"/>
<path d="M112.16 65.71C112.16 97.73 95.48 116.48 75.27 116.48C67.45 116.48 59.33 113.53 54.91 103.94C49.75 111.61 41.78 116.48 30.71 116.48C19.05 116.48 5.77 110.14 5.77 86.52V60.83C5.75 54.35 0 52.87 0 49.62V49.18C0 47.71 1.18 46.38 2.95 46.08L21.84 43.27C25.53 42.83 27.74 43.42 27.74 46.96L27.45 95.22C27.3 103.04 30.1 108.06 35.42 108.06C46.19 108.06 51.65 91.98 51.65 78.54V60.83C51.65 54.34 45.89 52.86 45.89 49.62V49.18C45.89 47.71 47.07 46.38 48.99 46.08L66.25 42.98C69.94 42.39 72.3 43.42 72.3 46.96L71.86 94.77C71.71 103.04 74.07 108.06 79.98 108.06C90.31 108.06 100.79 91.98 100.79 76.62C100.79 63.93 87.36 63.19 87.36 51.83C87.36 46.37 91.05 42.68 96.95 42.68C106.4 42.68 112.16 51.1 112.16 65.71" fill="black"/>
<path d="M124.54 112.49V111.9C124.54 108.21 130.15 107.03 130.15 100.69V67.33C130.15 60.84 124.54 59.21 124.54 55.97V55.53C124.54 54.2 125.72 53.46 127.64 52.43L146.09 43.28C149.78 41.51 152.14 43.57 152.14 46.23V100.69C152.14 107.03 158.34 108.22 158.34 111.9V112.49C158.34 113.97 157.02 115 154.95 115H127.8C125.87 114.99 124.54 113.96 124.54 112.49V112.49ZM126.6 20.7C126.6 13.32 132.5 7.86 141.21 7.86C149.92 7.86 155.53 13.32 155.53 20.7C155.53 28.22 149.92 33.69 141.21 33.69C132.5 33.69 126.6 28.22 126.6 20.7Z" fill="black"/>
<path d="M168.95 112.49V111.9C168.95 108.21 174.71 107.03 174.71 100.83V28.22C174.71 21.58 168.95 20.1 168.95 17.01V16.42C168.95 14.94 170.13 14.21 171.9 13.47L190.5 4.32001C194.34 2.41001 196.55 4.47001 196.55 6.98001V100.84C196.55 107.03 202.9 108.22 202.9 111.91V112.5C202.9 113.98 201.42 115.01 199.5 115.01H172.35C170.28 115 168.95 113.97 168.95 112.49" fill="black"/>
<path d="M213.22 112.49V111.9C213.22 108.21 218.98 107.03 218.98 100.83V28.22C218.98 21.58 213.22 20.1 213.22 17.01V16.42C213.22 14.94 214.4 14.21 216.17 13.47L234.77 4.32001C238.61 2.41001 240.82 4.47001 240.82 6.98001V100.84C240.82 107.03 247.17 108.22 247.17 111.91V112.5C247.17 113.98 245.7 115.01 243.77 115.01H216.61C214.55 115 213.22 113.97 213.22 112.49" fill="black"/>
<path d="M129.37 140.02H138.16C139.5 140.02 140.67 140.2 141.66 140.54C142.64 140.89 143.46 141.36 144.11 141.96C144.76 142.56 145.24 143.26 145.57 144.06C145.89 144.86 146.06 145.71 146.06 146.62C146.06 147.45 145.91 148.2 145.61 148.88C145.31 149.55 144.95 150.12 144.52 150.59C144.09 151.06 143.62 151.43 143.12 151.71C142.62 152 142.16 152.17 141.74 152.22C142.28 152.3 142.88 152.46 143.55 152.71C144.21 152.96 144.82 153.33 145.4 153.82C145.97 154.31 146.45 154.95 146.84 155.74C147.23 156.53 147.42 157.51 147.42 158.68C147.42 160.08 147.17 161.24 146.66 162.16C146.15 163.08 145.47 163.82 144.6 164.4C143.73 164.97 142.7 165.37 141.51 165.6C140.32 165.84 139.05 165.95 137.7 165.95H129.38V140.02H129.37ZM137.61 150.82C138.18 150.82 138.76 150.75 139.32 150.61C139.89 150.47 140.41 150.24 140.88 149.93C141.34 149.62 141.72 149.22 142.01 148.73C142.29 148.23 142.44 147.64 142.44 146.94C142.44 146.16 142.3 145.54 142.01 145.05C141.73 144.57 141.35 144.19 140.88 143.92C140.41 143.65 139.89 143.47 139.32 143.38C138.75 143.29 138.18 143.24 137.61 143.24H132.99V150.82H137.61V150.82ZM137.5 162.72C138.17 162.72 138.87 162.68 139.59 162.61C140.32 162.53 140.99 162.35 141.6 162.06C142.21 161.78 142.71 161.36 143.09 160.8C143.48 160.25 143.67 159.48 143.67 158.49C143.67 157.56 143.49 156.81 143.11 156.24C142.74 155.67 142.26 155.21 141.67 154.88C141.08 154.55 140.45 154.32 139.75 154.2C139.05 154.08 138.37 154.02 137.72 154.02H132.98V162.73H137.5V162.72Z" fill="black"/>
<path d="M167.65 140.02H171.46L181.61 165.94H177.45L174.77 158.71H164.12L161.44 165.94H157.51L167.65 140.02V140.02ZM173.64 155.57L169.44 144.18L165.21 155.57H173.64V155.57Z" fill="black"/>
<path d="M192.76 140.02H196.53L210.68 160.27V140.02H214.33V165.94H210.6L196.41 145.66V165.94H192.76V140.02Z" fill="black"/>
<path d="M228.01 140.02H231.7V151.8L242.54 140.02H246.82L237.18 150.59L247.99 165.94H243.52L234.65 153.24L231.7 156.42V165.94H228.01V140.02Z" fill="black"/>
</g>
<defs>
<clipPath id="clip0">
<rect width="382.62" height="166.24" fill="white"/>
</clipPath>
</defs>
</svg>
